<svg width="145" height="22" viewBox="0 0 145 22" fill="none" xmlns="http://www.w3.org/2000/svg">
<path d="M22.3749 21.3889C22.3749 21.5926 22.16 21.6944 21.7303 21.6944H21.3927C21.1062 21.6944 20.5845 21.6843 19.8274 21.6639C19.0703 21.6435 18.4871 21.6333 18.0779 21.6333C17.4641 21.6333 16.7479 21.6435 15.9294 21.6639C15.0905 21.6639 14.538 21.6639 14.272 21.6639H14.0572C13.6275 21.6639 13.4126 21.5722 13.4126 21.3889C13.4126 21.1852 13.7093 21.0833 14.3027 21.0833C15.3463 21.0833 15.9806 20.9713 16.2057 20.7472C16.308 20.6454 16.3591 19.963 16.3591 18.7V2.87222C16.3591 2.89259 16.2466 3.24907 16.0215 3.94166C15.203 6.40648 14.0163 10.1139 12.4612 15.0639L11.0186 19.9222C10.7322 20.8796 10.5275 21.3583 10.4048 21.3583C10.2615 21.3583 10.1081 21.1139 9.94439 20.625C9.351 18.7713 7.67314 14.1472 4.91081 6.75278L3.68311 3.48333C3.70357 3.87037 3.7138 4.4 3.7138 5.07222V15.0028C3.7138 18.7306 3.74449 20.6148 3.80588 20.6556C3.94911 20.9204 4.44019 21.0528 5.27912 21.0528C5.95435 21.0528 6.29197 21.1444 6.29197 21.3278C6.29197 21.5315 6.07712 21.6333 5.64743 21.6333C5.38143 21.6333 5.13589 21.6231 4.91081 21.6028C4.62434 21.5824 4.36857 21.5722 4.14349 21.5722L0.613851 21.6639C0.24554 21.6639 0.0613851 21.5722 0.0613851 21.3889C0.0613851 21.1852 0.644544 21.0731 1.81086 21.0528C2.30194 21.0528 2.5884 20.9713 2.67025 20.8083C2.7521 20.6454 2.79302 20.1157 2.79302 19.2194V4.58333C2.79302 2.89259 2.77256 1.97592 2.73164 1.83333C2.64979 1.54815 2.47587 1.35463 2.20986 1.25278C1.94386 1.15092 1.37093 1.06944 0.491081 1.00833C0.163694 0.987962 0 0.896295 0 0.733333C0 0.509258 0.296694 0.397221 0.890084 0.397221C0.971931 0.397221 1.14586 0.407406 1.41186 0.427778H3.00787C4.21511 0.427778 5.06427 0.417592 5.55535 0.397221C5.65766 0.662036 6.26128 2.26111 7.36621 5.19444C7.83683 6.41667 9.15661 9.98148 11.3256 15.8889C11.7143 14.5648 12.1133 13.2611 12.5226 11.9778L15.776 1.86389C15.9601 1.27315 16.1238 0.784258 16.2671 0.397221L20.8709 0.366665C21.5462 0.366665 21.9349 0.397221 22.0373 0.458332C22.1396 0.519443 22.1907 0.61111 22.1907 0.733333C22.1907 0.937036 22.0168 1.03889 21.6689 1.03889C21.096 1.03889 20.7072 1.05926 20.5026 1.1C20.0115 1.18148 19.6739 1.34444 19.4898 1.58889C19.3875 1.73148 19.3363 2.92315 19.3363 5.16389V19.3722C19.3363 20.187 19.4182 20.6657 19.5819 20.8083C19.8479 20.9917 20.5129 21.0833 21.5769 21.0833H21.761C22.1703 21.0833 22.3749 21.1852 22.3749 21.3889Z" fill="black"/>
<path d="M42.0145 21.4194C42.0145 21.6028 41.861 21.6944 41.5541 21.6944C41.3495 21.6944 41.1653 21.6843 41.0017 21.6639L37.1037 21.6028L33.2057 21.6639C33.0625 21.6843 32.909 21.6944 32.7454 21.6944C32.3361 21.6944 32.1315 21.5926 32.1315 21.3889C32.1315 21.1648 32.4077 21.0528 32.9602 21.0528C34.7608 21.0324 35.6611 20.8491 35.6611 20.5028C35.6611 20.4824 35.6407 20.4009 35.5998 20.2583L35.3542 19.4333L35.2008 19.0056C35.0166 18.3741 34.5664 16.9787 33.8503 14.8194H27.2821C26.0544 18.0787 25.4405 19.9528 25.4405 20.4417C25.4405 20.7269 25.5633 20.9 25.8088 20.9611C25.8702 20.9815 26.3818 21.0222 27.3435 21.0833C27.9369 21.1037 28.2336 21.2056 28.2336 21.3889C28.2336 21.5926 27.9675 21.6944 27.4355 21.6944C26.4943 21.6944 25.3996 21.6537 24.1514 21.5722C23.8445 21.5519 23.5274 21.5417 23.2 21.5417C22.8726 21.5417 22.5554 21.562 22.2485 21.6028C22.0848 21.6231 21.9518 21.6333 21.8495 21.6333C21.563 21.6333 21.4198 21.5417 21.4198 21.3583C21.4198 21.175 21.737 21.0731 22.3713 21.0528C23.026 21.0324 23.4967 20.9407 23.7831 20.7778C24.0696 20.5944 24.2947 20.2583 24.4584 19.7694C27.0979 12.2731 29.2464 6.2537 30.9038 1.71111C30.9447 1.46667 31.0266 1.19167 31.1493 0.88611L31.3028 0.33611C31.3642 0.112037 31.446 0 31.5483 0C31.6097 0 31.6609 0.0611109 31.7018 0.183333C31.9678 0.977777 32.5714 2.63796 33.5127 5.16389C34.2493 7.13981 36.0806 12.1 39.0066 20.0444C39.1703 20.4926 39.3749 20.7778 39.6205 20.9C39.8865 21.0222 40.4185 21.0935 41.2165 21.1139C41.7485 21.1343 42.0145 21.2361 42.0145 21.4194ZM33.6661 14.1167C33.3387 13.2 32.7965 11.6824 32.0394 9.56389L30.5662 5.37778C29.7068 7.61852 28.6735 10.5315 27.4662 14.1167H33.6661Z" fill="black"/>
<path d="M61.7057 15.1861C61.7057 15.3694 61.6136 15.4611 61.4295 15.4611L60.7235 15.4306C59.7823 15.3898 59.2503 15.5528 59.1275 15.9194C59.0457 16.1639 59.0047 17.05 59.0047 18.5778V19.5556C57.9612 20.4519 56.9483 21.0833 55.9662 21.45C55.0045 21.8167 53.8484 22 52.4979 22C49.265 22 46.697 21.0426 44.7941 19.1278C42.8912 17.1926 41.9397 14.575 41.9397 11.275C41.9397 7.93426 42.8707 5.23518 44.7327 3.17778C46.5947 1.12037 49.0501 0.0916651 52.0989 0.0916651C53.4289 0.0916651 54.8817 0.458332 56.4573 1.19167C56.9279 1.41574 57.3167 1.52778 57.6236 1.52778C58.0124 1.52778 58.2681 1.28333 58.3909 0.794443C58.4932 0.509258 58.616 0.366665 58.7592 0.366665C58.9229 0.366665 59.0047 0.448147 59.0047 0.611111C59.0047 0.672221 58.9843 0.886109 58.9434 1.25278C58.8206 2.41389 58.7592 3.24907 58.7592 3.75833L58.7899 5.74444C58.8104 6.45741 58.8206 6.77315 58.8206 6.69167C58.7797 7.18055 58.6467 7.425 58.4216 7.425C58.2374 7.425 58.1351 7.28241 58.1147 6.99722C58.0124 5.02129 57.4394 3.47315 56.3959 2.35278C55.3523 1.21204 53.9814 0.641666 52.2831 0.641666C50.1551 0.641666 48.467 1.58889 47.2188 3.48333C45.9911 5.37778 45.3773 7.95463 45.3773 11.2139C45.3773 14.3509 46.0013 16.8463 47.2495 18.7C48.5181 20.5333 50.2267 21.45 52.3752 21.45C54.0121 21.45 55.1375 20.9815 55.7513 20.0444C56.0583 19.5759 56.2117 18.7306 56.2117 17.5083C56.2117 16.4898 56.1094 15.8889 55.9048 15.7056C55.7206 15.5222 55.0556 15.4407 53.9098 15.4611C53.6233 15.4611 53.4392 15.4509 53.3573 15.4306C53.2755 15.3898 53.2345 15.3185 53.2345 15.2167C53.2345 14.9926 53.4596 14.8806 53.9098 14.8806H54.4622C54.7692 14.9417 55.8536 14.962 57.7157 14.9417L60.2938 14.9111C60.4371 14.9111 60.5905 14.9009 60.7542 14.8806C60.9179 14.8806 61.0305 14.8806 61.0918 14.8806C61.5011 14.8806 61.7057 14.9824 61.7057 15.1861Z" fill="black"/>
<path d="M80.8897 21.4194C80.8897 21.6028 80.7363 21.6944 80.4294 21.6944C80.2247 21.6944 80.0406 21.6843 79.8769 21.6639L75.9789 21.6028L72.081 21.6639C71.9377 21.6843 71.7843 21.6944 71.6206 21.6944C71.2113 21.6944 71.0067 21.5926 71.0067 21.3889C71.0067 21.1648 71.283 21.0528 71.8354 21.0528C73.6361 21.0324 74.5364 20.8491 74.5364 20.5028C74.5364 20.4824 74.5159 20.4009 74.475 20.2583L74.2294 19.4333L74.076 19.0056C73.8918 18.3741 73.4417 16.9787 72.7255 14.8194H66.1573C64.9296 18.0787 64.3158 19.9528 64.3158 20.4417C64.3158 20.7269 64.4385 20.9 64.6841 20.9611C64.7455 20.9815 65.257 21.0222 66.2187 21.0833C66.8121 21.1037 67.1088 21.2056 67.1088 21.3889C67.1088 21.5926 66.8428 21.6944 66.3108 21.6944C65.3695 21.6944 64.2748 21.6537 63.0267 21.5722C62.7197 21.5519 62.4026 21.5417 62.0752 21.5417C61.7478 21.5417 61.4307 21.562 61.1237 21.6028C60.96 21.6231 60.827 21.6333 60.7247 21.6333C60.4383 21.6333 60.295 21.5417 60.295 21.3583C60.295 21.175 60.6122 21.0731 61.2465 21.0528C61.9013 21.0324 62.3719 20.9407 62.6584 20.7778C62.9448 20.5944 63.1699 20.2583 63.3336 19.7694C65.9732 12.2731 68.1216 6.2537 69.779 1.71111C69.82 1.46667 69.9018 1.19167 70.0246 0.88611L70.178 0.33611C70.2394 0.112037 70.3213 0 70.4236 0C70.485 0 70.5361 0.0611109 70.577 0.183333C70.843 0.977777 71.4467 2.63796 72.3879 5.16389C73.1245 7.13981 74.9558 12.1 77.8819 20.0444C78.0456 20.4926 78.2502 20.7778 78.4957 20.9C78.7617 21.0222 79.2937 21.0935 80.0917 21.1139C80.6237 21.1343 80.8897 21.2361 80.8897 21.4194ZM72.5414 14.1167C72.214 13.2 71.6717 11.6824 70.9147 9.56389L69.4414 5.37778C68.582 7.61852 67.5487 10.5315 66.3415 14.1167H72.5414Z" fill="black"/>
<path d="M97.0513 15.0639C97.0513 15.2065 97.041 15.3185 97.0206 15.4L96.8671 16.4083C96.7239 17.3046 96.5397 18.6185 96.3147 20.35C96.2737 20.6352 96.2226 21.0833 96.1612 21.6944C96.3044 21.6944 95.8338 21.6843 94.7493 21.6639C93.6853 21.6435 92.5395 21.6333 91.3118 21.6333H89.0405C86.135 21.6333 84.0581 21.6944 82.8099 21.8167C82.7076 21.837 82.5542 21.8472 82.3495 21.8472C82.0426 21.8472 81.8892 21.7657 81.8892 21.6028C81.8892 21.6028 81.9096 21.5417 81.9505 21.4194C81.9915 21.3583 82.237 20.8898 82.6872 20.0139C84.0786 17.325 86.7283 12.3444 90.6365 5.07222C91.4345 3.58518 92.0893 2.30185 92.6009 1.22222C92.1302 1.12037 91.1071 1.06944 89.5316 1.06944C87.0353 1.06944 85.4597 1.5787 84.8049 2.59722C84.6413 2.86204 84.4264 3.41204 84.1604 4.24722C83.9149 5.06204 83.7512 5.76481 83.6693 6.35556C83.6079 6.78333 83.4545 6.99722 83.2089 6.99722C83.0043 6.99722 82.902 6.89537 82.902 6.69167C82.902 6.5287 82.9122 6.40648 82.9327 6.325L83.1476 4.85833C83.2089 4.38981 83.2908 3.88055 83.3931 3.33055L83.6079 2.07778C83.6898 1.60926 83.8126 1.00833 83.9763 0.274998C85.204 0.397221 87.1274 0.458332 89.7465 0.458332C90.6263 0.458332 91.5675 0.448148 92.5702 0.427778C93.5728 0.387036 94.4526 0.366665 95.2097 0.366665H95.7008C95.885 0.366665 96.0487 0.35648 96.1919 0.33611C96.0896 0.662036 95.711 1.49722 95.0563 2.84167C94.9539 3.14722 92.1405 8.48426 86.6158 18.8528C86.3703 19.3213 86.002 20.0139 85.5109 20.9306C86.493 20.9917 87.69 21.0222 89.1019 21.0222C90.4524 21.0222 91.4038 20.9815 91.9563 20.9C93.0612 20.7167 93.9104 20.3296 94.5038 19.7389C95.3837 18.863 95.977 17.3556 96.284 15.2167C96.3249 14.8704 96.4579 14.6972 96.683 14.6972C96.9285 14.6972 97.0513 14.8194 97.0513 15.0639Z" fill="black"/>
<path d="M106.797 21.3889C106.797 21.5519 106.674 21.6333 106.429 21.6333H106.122C105.999 21.5722 104.607 21.5417 101.947 21.5417C101.436 21.5417 100.924 21.562 100.413 21.6028C100.147 21.6231 99.7376 21.6333 99.1851 21.6333C98.9191 21.6333 98.7861 21.5417 98.7861 21.3583C98.7861 21.1954 99.0521 21.1037 99.5841 21.0833C100.403 21.063 100.883 20.9713 101.027 20.8083C101.17 20.625 101.242 20.0343 101.242 19.0361V2.96389C101.242 1.96574 101.19 1.40555 101.088 1.28333C100.965 1.07963 100.403 0.957406 99.4 0.916665C99.0112 0.896295 98.8168 0.814814 98.8168 0.67222C98.8168 0.488887 98.9396 0.397221 99.1851 0.397221L103.329 0.458332C103.636 0.458332 104.229 0.448148 105.109 0.427778L106.275 0.397221C106.602 0.397221 106.766 0.488887 106.766 0.67222C106.766 0.835184 106.316 0.937036 105.416 0.977776C104.904 0.998147 104.587 1.08981 104.464 1.25278C104.362 1.41574 104.311 1.84352 104.311 2.53611V18.8528C104.311 20.0139 104.362 20.6454 104.464 20.7472C104.689 20.9713 105.354 21.1037 106.459 21.1444C106.684 21.1444 106.797 21.2259 106.797 21.3889Z" fill="black"/>
<path d="M127.313 0.702776C127.313 0.90648 127.058 0.998147 126.546 0.977776L125.871 0.947221H125.318C124.991 0.947221 124.797 1.00833 124.735 1.13056C124.674 1.23241 124.643 1.56852 124.643 2.13889V19.7389C124.643 20.8185 124.633 21.45 124.612 21.6333C124.592 21.8167 124.531 21.9083 124.428 21.9083C124.306 21.9083 124.162 21.7963 123.999 21.5722L120.07 15.8583C117.799 12.538 115.036 8.39259 111.783 3.42222L111.814 20.4722C111.834 20.737 111.988 20.9102 112.274 20.9917C112.561 21.0528 113.246 21.0935 114.33 21.1139C114.596 21.1139 114.729 21.1954 114.729 21.3583C114.729 21.562 114.463 21.6639 113.931 21.6639C113.747 21.6639 113.164 21.6333 112.182 21.5722C111.855 21.5519 111.537 21.5417 111.231 21.5417C111.251 21.5417 111.067 21.562 110.678 21.6028C110.31 21.6435 109.737 21.6639 108.959 21.6639H108.652C108.182 21.6639 107.946 21.5722 107.946 21.3889C107.946 21.2056 108.151 21.1139 108.56 21.1139C109.768 21.0935 110.463 21.0222 110.647 20.9C110.852 20.7574 110.954 20.3194 110.954 19.5861V4.52222C110.954 2.83148 110.606 1.77222 109.911 1.34444C109.583 1.14074 109 1.03889 108.161 1.03889C107.629 1.03889 107.363 0.937036 107.363 0.733333C107.363 0.549999 107.517 0.458332 107.824 0.458332C108.233 0.458332 108.755 0.468518 109.389 0.488888C110.023 0.509258 110.361 0.519443 110.402 0.519443C110.463 0.519443 110.75 0.509258 111.261 0.488888C111.936 0.488888 112.591 0.478703 113.226 0.458332L123.814 16.1333V2.53611C123.814 1.90463 123.804 1.52778 123.784 1.40555C123.763 1.26296 123.681 1.16111 123.538 1.1C123.395 1.01852 122.904 0.977776 122.065 0.977776C121.328 0.977776 120.96 0.886109 120.96 0.702776C120.96 0.499072 121.206 0.397221 121.697 0.397221H122.771C123.037 0.397221 123.323 0.397221 123.63 0.397221C123.958 0.417592 124.152 0.427778 124.213 0.427778C124.234 0.427778 124.418 0.417592 124.766 0.397221C125.093 0.397221 125.4 0.397221 125.687 0.397221H126.638C127.088 0.397221 127.313 0.499072 127.313 0.702776Z" fill="black"/>
<path d="M145 16.6833C145 16.7648 144.98 17.2639 144.939 18.1806C144.898 19.0972 144.877 19.9731 144.877 20.8083V21.8167C142.872 21.7148 138.902 21.6639 132.969 21.6639C132.252 21.6639 131.546 21.6741 130.851 21.6944C130.155 21.6944 129.684 21.6944 129.439 21.6944H129.132C128.743 21.6944 128.549 21.6028 128.549 21.4194C128.549 21.2972 128.61 21.2259 128.733 21.2056C128.794 21.2056 129.183 21.175 129.899 21.1139C130.431 21.0731 130.748 20.9611 130.851 20.7778C130.973 20.5944 131.035 20.1157 131.035 19.3417V2.16944C131.035 1.5787 130.943 1.23241 130.759 1.13056C130.595 1.00833 130.042 0.947221 129.101 0.947221C128.774 0.947221 128.61 0.855554 128.61 0.67222C128.61 0.488887 128.835 0.397221 129.285 0.397221L134.534 0.427778C134.718 0.427778 135.874 0.417592 138.002 0.397221C140.13 0.397221 141.562 0.397221 142.299 0.397221C142.913 0.397221 143.476 0.356479 143.987 0.274998C144.028 1.15092 144.12 2.36296 144.263 3.91111L144.386 5.225C144.407 5.32685 144.417 5.45926 144.417 5.62222C144.417 5.82593 144.325 5.92778 144.141 5.92778C143.916 5.92778 143.752 5.67315 143.65 5.16389C143.261 3.33055 142.626 2.16944 141.747 1.68055C141.092 1.31389 139.373 1.13056 136.59 1.13056H134.073V10.0833H134.81C137.102 10.0833 138.493 9.91018 138.984 9.56389C139.496 9.21759 139.844 8.20926 140.028 6.53889C140.069 6.11111 140.181 5.89722 140.365 5.89722C140.59 5.89722 140.703 6.08055 140.703 6.44722C140.703 6.81389 140.683 7.3537 140.642 8.06667C140.601 8.77963 140.58 9.31944 140.58 9.68611C140.58 11.8657 140.621 13.363 140.703 14.1778C140.723 14.3815 140.734 14.5546 140.734 14.6972C140.734 14.962 140.621 15.0944 140.396 15.0944C140.253 15.0944 140.151 15.013 140.089 14.85C140.048 14.6667 139.966 14.0963 139.844 13.1389C139.68 11.937 139.179 11.1935 138.34 10.9083C137.971 10.7861 137.01 10.725 135.455 10.725H134.073V20.9917C138.575 20.9917 141.215 20.9 141.992 20.7167C143.343 20.4111 144.11 19.1074 144.294 16.8056C144.335 16.2963 144.468 16.0417 144.693 16.0417C144.898 16.0417 145 16.2556 145 16.6833Z" fill="black"/>
</svg>
