<svg width="26" height="26" viewBox="0 0 26 26" fill="none" xmlns="http://www.w3.org/2000/svg">
<path d="M13.019 0C5.82858 0 0 5.81425 0 12.9859C0 18.4882 3.4296 23.1877 8.27317 25.0781C8.15914 24.05 8.05706 22.4748 8.3177 21.3525C8.55553 20.3374 9.84462 14.8991 9.84462 14.8991C9.84462 14.8991 9.45474 14.1191 9.45474 12.9697C9.45474 11.1681 10.5049 9.81608 11.8092 9.81608C12.9213 9.81608 13.4577 10.6492 13.4577 11.6447C13.4577 12.7595 12.7486 14.4257 12.3804 15.9694C12.0709 17.2618 13.032 18.3148 14.3081 18.3148C16.6191 18.3148 18.4002 15.8828 18.4002 12.3706C18.4002 9.27117 16.1597 7.09583 12.9614 7.09583C9.25818 7.09583 7.08726 9.87133 7.08726 12.7281C7.08726 13.8472 7.51514 15.0497 8.05271 15.6975C8.16023 15.8275 8.17435 15.9413 8.14502 16.0713C8.04728 16.4775 7.82682 17.3702 7.7823 17.5478C7.72474 17.7916 7.59551 17.8414 7.34681 17.7266C5.72324 16.9791 4.70457 14.6088 4.70457 12.6934C4.70457 8.60275 7.6889 4.83708 13.3057 4.83708C17.8213 4.83708 21.3334 8.05133 21.3334 12.337C21.3334 16.8166 18.5022 20.4208 14.5644 20.4208C13.246 20.4208 12.0079 19.7394 11.5692 18.9269L10.7558 22.0123C10.4636 23.1443 9.66543 24.5603 9.12894 25.4204C10.3485 25.7942 11.6333 26 12.9843 26C20.1595 26 26 20.1879 26 13.0141C26 5.83917 20.1595 0.0281667 12.9843 0.0281667L13.019 0Z" fill="black"/>
</svg>
