<svg width="25" height="20" viewBox="0 0 25 20" fill="none" xmlns="http://www.w3.org/2000/svg">
<path d="M21.45 4.95C21.45 5.1 21.45 5.4 21.45 5.55C21.45 12 16.5 19.5 7.5 19.5C4.65 19.5 2.1 18.75 0 17.25C0.45 17.25 0.75 17.25 1.2 17.25C3.45 17.25 5.7 16.5 7.35 15.15C5.25 15.15 3.45 13.65 2.7 11.7C3 11.7 3.3 11.85 3.6 11.85C4.05 11.85 4.5 11.85 4.95 11.7C2.7 11.25 1.05 9.3 1.05 6.9C1.65 7.2 2.4 7.5 3.3 7.5C1.95 6.6 1.05 5.1 1.05 3.45C1.05 2.55 1.35 1.65 1.65 0.9C4.05 3.9 7.65 5.85 11.85 6C11.7 5.7 11.7 5.25 11.7 4.95C11.7 2.25 13.95 0 16.65 0C18 0 19.35 0.6 20.25 1.5C21.3 1.35 22.5 0.9 23.4 0.3C23.1 1.5 22.2 2.4 21.3 3C22.35 2.85 23.25 2.55 24.15 2.25C23.25 3.45 22.35 4.35 21.45 4.95Z" fill="black"/>
</svg>
