<svg width="26" height="18" viewBox="0 0 26 18" fill="none" xmlns="http://www.w3.org/2000/svg">
<path d="M25.4572 2.7794C25.3065 2.24452 25.0191 1.7572 24.6227 1.36453C24.2263 0.971866 23.7343 0.687133 23.1944 0.537857C21.1678 1.5421e-05 13.0116 1.52287e-05 13.0116 1.52287e-05C13.0116 1.52287e-05 4.87596 -0.0107199 2.82878 0.537857C2.28883 0.687133 1.79687 0.971866 1.40047 1.36453C1.00408 1.7572 0.716639 2.24452 0.565944 2.7794C0.181782 4.8347 -0.00761158 6.92106 0.000234079 9.01128C-0.00612839 11.0936 0.183259 13.172 0.565944 15.2195C0.716639 15.7544 1.00408 16.2417 1.40047 16.6344C1.79687 17.0271 2.28883 17.3118 2.82878 17.4611C4.8532 18 13.0116 18 13.0116 18C13.0116 18 21.1461 18 23.1944 17.4611C23.7343 17.3118 24.2263 17.0271 24.6227 16.6344C25.0191 16.2417 25.3065 15.7544 25.4572 15.2195C25.8319 13.1713 26.0133 11.0929 25.9991 9.01128C26.0148 6.9218 25.8334 4.83544 25.4572 2.7794ZM10.4084 12.8663V5.1444L17.197 9.01128L10.4084 12.8663Z" fill="black"/>
</svg>
